# xmcd
#
# Track frame offsets:
#	150
#	11250
#	23250
#	39675
#	48975
#	60950
#	72150
#	85425
#	96150
#	108900
#	120825
#	133762
#	153225
#	169800
#
# Disc length: 2452
#
# Revision: 2
# Processed by: cddbd v1.5.1PL0 Copyright (c) Steve Scherf et al.
# Submitted via: CDex 1.50Beta7
# Normalized: r0:TDELIM( - ),TSWAP
#
DISCID=a009920e
DTITLE=Various Artist - Country Giants
DYEAR=1898
DGENRE=Country
TTITLE0=Jim Reeves - I Guess I'm Crazy
TTITLE1=Johnny Cash - Flesh and Blood
TTITLE2=Kenny Rogers - Lucille
TTITLE3=Marty Robbins - Ruby Ann
TTITLE4=Tennessee Ernie Ford - Sixteen Tons
TTITLE5=Waylon Jennings - This Time
TTITLE6=Glen Campbell - Southern Nights
TTITLE7=Willie Nelson - Blue Eyes Crying In The Rain
TTITLE8=Hank Snow - I've Been Everywhere
TTITLE9=Charley Pride - She's Just An Old Love Turned Memory
TTITLE10=Gary Stewart - She's Actin' Single (I'm Drinkin' Doubles)
TTITLE11=Alabama - "You've Got" The Touch
TTITLE12=Ronnie Milsap - Am I Losing You
TTITLE13=George Jones - The Grand Tour
EXTD=YEAR: 1898
EXTT0=
EXTT1=
EXTT2=
EXTT3=
EXTT4=
EXTT5=
EXTT6=
EXTT7=
EXTT8=
EXTT9=
EXTT10=
EXTT11=
EXTT12=
EXTT13=
PLAYORDER=
